<?xml version="1.0" encoding="UTF-8" standalone="no"?>
<!DOCTYPE svg PUBLIC "-//W3C//DTD SVG 1.1//EN"
 "http://www.w3.org/Graphics/SVG/1.1/DTD/svg11.dtd">
<!-- Generated by graphviz version 2.43.0 (0)
 -->
<!-- Title: %3 Pages: 1 -->
<svg width="327pt" height="299pt"
 viewBox="0.00 0.00 326.70 299.00" xmlns="http://www.w3.org/2000/svg" xmlns:xlink="http://www.w3.org/1999/xlink">
<g id="graph0" class="graph" transform="scale(1 1) rotate(0) translate(4 295)">
<title>%3</title>
<polygon fill="white" stroke="transparent" points="-4,4 -4,-295 322.7,-295 322.7,4 -4,4"/>
<!-- fake -->
<g id="node1" class="node">
<title>fake</title>
</g>
<!-- 0 -->
<g id="node2" class="node">
<title>0</title>
<ellipse fill="none" stroke="black" cx="176.7" cy="-200" rx="27" ry="18"/>
<text text-anchor="middle" x="176.7" y="-196.3" font-family="Times,serif" font-size="14.00">0</text>
</g>
<!-- fake&#45;&gt;0 -->
<g id="edge1" class="edge">
<title>fake&#45;&gt;0</title>
<path fill="none" stroke="black" stroke-width="2" d="M176.7,-254.81C176.7,-246.79 176.7,-237.05 176.7,-228.07"/>
<polygon fill="black" stroke="black" stroke-width="2" points="180.2,-228.03 176.7,-218.03 173.2,-228.03 180.2,-228.03"/>
</g>
<!-- 0&#45;&gt;0 -->
<g id="edge9" class="edge">
<title>0&#45;&gt;0</title>
<path fill="none" stroke="black" d="M202.14,-206.69C212.73,-207.15 221.7,-204.92 221.7,-200 221.7,-196.77 217.84,-194.7 212.19,-193.79"/>
<polygon fill="black" stroke="black" points="212.3,-190.29 202.14,-193.31 211.96,-197.28 212.3,-190.29"/>
<text text-anchor="middle" x="245.7" y="-196.3" font-family="Times,serif" font-size="14.00">~b &amp; ~y</text>
</g>
<!-- 1 -->
<g id="node3" class="node">
<title>1</title>
<ellipse fill="none" stroke="black" cx="54.7" cy="-22" rx="27" ry="18"/>
<text text-anchor="middle" x="54.7" y="-18.3" font-family="Times,serif" font-size="14.00">1</text>
</g>
<!-- 0&#45;&gt;1 -->
<g id="edge2" class="edge">
<title>0&#45;&gt;1</title>
<path fill="none" stroke="black" d="M149.78,-197.18C110.58,-192.91 38.96,-178.64 6.7,-131 -12.03,-103.34 12.48,-67.18 32.8,-44.52"/>
<polygon fill="black" stroke="black" points="35.46,-46.8 39.74,-37.1 30.35,-42.02 35.46,-46.8"/>
<text text-anchor="middle" x="73.7" y="-109.3" font-family="Times,serif" font-size="14.00">(y &amp; ~b) | (b &amp; y &amp; ~o)</text>
</g>
<!-- 2 -->
<g id="node4" class="node">
<title>2</title>
<ellipse fill="none" stroke="black" cx="176.7" cy="-113" rx="27" ry="18"/>
<text text-anchor="middle" x="176.7" y="-109.3" font-family="Times,serif" font-size="14.00">2</text>
</g>
<!-- 0&#45;&gt;2 -->
<g id="edge8" class="edge">
<title>0&#45;&gt;2</title>
<path fill="none" stroke="black" d="M176.7,-181.8C176.7,-170.16 176.7,-154.55 176.7,-141.24"/>
<polygon fill="black" stroke="black" points="180.2,-141.18 176.7,-131.18 173.2,-141.18 180.2,-141.18"/>
<text text-anchor="middle" x="213.2" y="-152.8" font-family="Times,serif" font-size="14.00">b &amp; ~o &amp; ~y</text>
</g>
<!-- 3 -->
<g id="node5" class="node">
<title>3</title>
<ellipse fill="none" stroke="black" cx="252.7" cy="-22" rx="18" ry="18"/>
<ellipse fill="none" stroke="black" cx="252.7" cy="-22" rx="22" ry="22"/>
<text text-anchor="middle" x="252.7" y="-18.3" font-family="Times,serif" font-size="14.00">3</text>
</g>
<!-- 0&#45;&gt;3 -->
<g id="edge6" class="edge">
<title>0&#45;&gt;3</title>
<path fill="none" stroke="black" d="M201.48,-192.11C227.9,-183.14 267.45,-164.49 278.7,-131 287.69,-104.25 277.9,-72.79 267.87,-50.75"/>
<polygon fill="black" stroke="black" points="270.97,-49.1 263.46,-41.62 264.66,-52.15 270.97,-49.1"/>
<text text-anchor="middle" x="298.2" y="-109.3" font-family="Times,serif" font-size="14.00">b &amp; o</text>
</g>
<!-- 1&#45;&gt;1 -->
<g id="edge10" class="edge">
<title>1&#45;&gt;1</title>
<path fill="none" stroke="black" d="M78.77,-30.45C89.94,-31.38 99.7,-28.56 99.7,-22 99.7,-17.59 95.29,-14.88 89.02,-13.85"/>
<polygon fill="black" stroke="black" points="88.87,-10.34 78.77,-13.55 88.67,-17.34 88.87,-10.34"/>
<text text-anchor="middle" x="112.7" y="-18.3" font-family="Times,serif" font-size="14.00">True</text>
</g>
<!-- 2&#45;&gt;1 -->
<g id="edge3" class="edge">
<title>2&#45;&gt;1</title>
<path fill="none" stroke="black" d="M159.22,-99.25C138.68,-84.27 104.41,-59.26 80.74,-42"/>
<polygon fill="black" stroke="black" points="82.68,-39.08 72.54,-36.02 78.56,-44.74 82.68,-39.08"/>
<text text-anchor="middle" x="146.7" y="-65.8" font-family="Times,serif" font-size="14.00">y &amp; ~o</text>
</g>
<!-- 2&#45;&gt;2 -->
<g id="edge5" class="edge">
<title>2&#45;&gt;2</title>
<path fill="none" stroke="black" d="M201.23,-120.75C212.21,-121.49 221.7,-118.91 221.7,-113 221.7,-109.03 217.41,-106.56 211.27,-105.59"/>
<polygon fill="black" stroke="black" points="211.35,-102.09 201.23,-105.25 211.1,-109.09 211.35,-102.09"/>
<text text-anchor="middle" x="245.7" y="-109.3" font-family="Times,serif" font-size="14.00">~o &amp; ~y</text>
</g>
<!-- 2&#45;&gt;3 -->
<g id="edge7" class="edge">
<title>2&#45;&gt;3</title>
<path fill="none" stroke="black" d="M189.59,-96.9C201.2,-83.3 218.48,-63.07 232.02,-47.22"/>
<polygon fill="black" stroke="black" points="234.88,-49.26 238.71,-39.38 229.56,-44.71 234.88,-49.26"/>
<text text-anchor="middle" x="222.2" y="-65.8" font-family="Times,serif" font-size="14.00">o</text>
</g>
<!-- 3&#45;&gt;3 -->
<g id="edge4" class="edge">
<title>3&#45;&gt;3</title>
<path fill="none" stroke="black" d="M273.28,-30.37C283.54,-31.53 292.7,-28.74 292.7,-22 292.7,-17.68 288.94,-14.99 283.54,-13.91"/>
<polygon fill="black" stroke="black" points="283.37,-10.41 273.28,-13.63 283.18,-17.4 283.37,-10.41"/>
<text text-anchor="middle" x="305.7" y="-18.3" font-family="Times,serif" font-size="14.00">True</text>
</g>
</g>
</svg>
