<?xml version="1.0" encoding="UTF-8" standalone="no"?>
<!DOCTYPE svg PUBLIC "-//W3C//DTD SVG 1.1//EN"
 "http://www.w3.org/Graphics/SVG/1.1/DTD/svg11.dtd">
<!-- Generated by graphviz version 2.43.0 (0)
 -->
<!-- Title: %3 Pages: 1 -->
<svg width="101pt" height="212pt"
 viewBox="0.00 0.00 101.00 212.00" xmlns="http://www.w3.org/2000/svg" xmlns:xlink="http://www.w3.org/1999/xlink">
<g id="graph0" class="graph" transform="scale(1 1) rotate(0) translate(4 208)">
<title>%3</title>
<polygon fill="white" stroke="transparent" points="-4,4 -4,-208 97,-208 97,4 -4,4"/>
<!-- fake -->
<g id="node1" class="node">
<title>fake</title>
</g>
<!-- 0 -->
<g id="node2" class="node">
<title>0</title>
<ellipse fill="none" stroke="black" cx="27" cy="-113" rx="27" ry="18"/>
<text text-anchor="middle" x="27" y="-109.3" font-family="Times,serif" font-size="14.00">0</text>
</g>
<!-- fake&#45;&gt;0 -->
<g id="edge1" class="edge">
<title>fake&#45;&gt;0</title>
<path fill="none" stroke="black" stroke-width="2" d="M27,-167.81C27,-159.79 27,-150.05 27,-141.07"/>
<polygon fill="black" stroke="black" stroke-width="2" points="30.5,-141.03 27,-131.03 23.5,-141.03 30.5,-141.03"/>
</g>
<!-- 0&#45;&gt;0 -->
<g id="edge3" class="edge">
<title>0&#45;&gt;0</title>
<path fill="none" stroke="black" d="M52.44,-119.69C63.03,-120.15 72,-117.92 72,-113 72,-109.77 68.14,-107.7 62.49,-106.79"/>
<polygon fill="black" stroke="black" points="62.6,-103.29 52.44,-106.31 62.27,-110.28 62.6,-103.29"/>
<text text-anchor="middle" x="79.5" y="-109.3" font-family="Times,serif" font-size="14.00">~o</text>
</g>
<!-- 1 -->
<g id="node3" class="node">
<title>1</title>
<ellipse fill="none" stroke="black" cx="27" cy="-22" rx="18" ry="18"/>
<ellipse fill="none" stroke="black" cx="27" cy="-22" rx="22" ry="22"/>
<text text-anchor="middle" x="27" y="-18.3" font-family="Times,serif" font-size="14.00">1</text>
</g>
<!-- 0&#45;&gt;1 -->
<g id="edge2" class="edge">
<title>0&#45;&gt;1</title>
<path fill="none" stroke="black" d="M27,-94.84C27,-83.44 27,-68.13 27,-54.58"/>
<polygon fill="black" stroke="black" points="30.5,-54.19 27,-44.19 23.5,-54.19 30.5,-54.19"/>
<text text-anchor="middle" x="30.5" y="-65.8" font-family="Times,serif" font-size="14.00">o</text>
</g>
<!-- 1&#45;&gt;1 -->
<g id="edge4" class="edge">
<title>1&#45;&gt;1</title>
<path fill="none" stroke="black" d="M47.58,-30.37C57.84,-31.53 67,-28.74 67,-22 67,-17.68 63.24,-14.99 57.84,-13.91"/>
<polygon fill="black" stroke="black" points="57.67,-10.41 47.58,-13.63 57.48,-17.4 57.67,-10.41"/>
<text text-anchor="middle" x="80" y="-18.3" font-family="Times,serif" font-size="14.00">True</text>
</g>
</g>
</svg>
